<svg width="280" height="311" viewBox="0 0 280 311" fill="none" xmlns="http://www.w3.org/2000/svg">
<path fill-rule="evenodd" clip-rule="evenodd" d="M279.142 216.458V95.0263C279.142 82.9559 272.683 71.822 262.162 65.7868L156.951 5.01874C146.43 -1.01645 133.617 -1.01645 123.096 5.01874L17.8842 65.6828C7.36307 71.718 0.904541 82.8518 0.904541 95.0263V216.458C0.904541 228.529 7.36307 239.663 17.8842 245.698L123.096 306.362C133.617 312.397 146.43 312.397 156.951 306.362L262.266 245.594C272.683 239.663 279.142 228.529 279.142 216.458Z" fill="#3330B4"/>
<path fill-rule="evenodd" clip-rule="evenodd" d="M140.075 292.21C137.471 292.21 134.867 291.482 132.471 290.233L27.2594 229.465C22.5718 226.76 19.655 221.765 19.655 216.354V95.0263C19.655 89.6154 22.5718 84.6208 27.1553 81.9154L132.471 21.1473C134.763 19.7945 137.367 19.1702 140.075 19.1702C142.784 19.1702 145.284 19.8986 147.68 21.1473L252.995 81.9154C257.683 84.6208 260.6 89.6154 260.6 95.0263V216.458C260.6 221.869 257.683 226.864 252.995 229.569L147.68 290.337C145.284 291.482 142.68 292.21 140.075 292.21Z" fill="#61C4FC"/>
<mask id="mask0_401_3" style="mask-type:alpha" maskUnits="userSpaceOnUse" x="10" y="133" width="259" height="61">
<path d="M10.6455 133.301H268.645V193.301H10.6455V133.301Z" fill="white"/>
</mask>
<g mask="url(#mask0_401_3)">
<path fill-rule="evenodd" clip-rule="evenodd" d="M10.6455 34.2317H268.645V292.232H10.6455V34.2317Z" fill="#3330B4"/>
</g>
<mask id="mask1_401_3" style="mask-type:alpha" maskUnits="userSpaceOnUse" x="122" y="244" width="36" height="35">
<path d="M122 244H157.139V278.037H122V244Z" fill="white"/>
</mask>
<g mask="url(#mask1_401_3)">
<path fill-rule="evenodd" clip-rule="evenodd" d="M144.917 255.167L157.139 256.912L148.335 265.657L150.471 277.948L139.523 272.186L128.621 278.037L130.658 265.73L121.785 257.056L133.992 255.212L139.41 244L144.917 255.167Z" fill="white"/>
</g>
<path fill-rule="evenodd" clip-rule="evenodd" d="M178.87 65.8803C178.87 64.6713 178.312 63.7413 177.289 63.0903C177.103 62.9973 176.824 62.8113 176.638 62.7183C176.638 59.6494 176.545 56.4875 176.359 53.3256C175.987 46.0718 172.174 42.5378 165.013 42.4448C158.782 42.4448 152.551 42.4448 146.32 42.4448C136.183 42.4448 126.139 42.3518 116.002 42.5378C106.702 42.7238 102.982 46.6297 102.982 55.9295C102.982 58.1614 102.982 60.3934 102.982 62.7183C102.424 62.9043 101.959 63.3693 101.587 63.8343C100.936 64.3923 100.75 65.2293 100.75 66.1592C100.75 70.4371 100.75 74.715 100.75 79.0859C100.75 80.3879 101.215 81.4109 102.331 82.0618C102.61 82.2478 102.796 82.3408 103.075 82.4338C103.075 91.6406 103.075 100.754 103.075 109.961C103.075 111.263 102.889 112.751 103.54 113.867C104.935 116.099 104.656 118.517 104.749 120.935C104.842 123.911 106.795 125.957 109.771 126.05C111.91 126.143 114.049 126.143 116.188 126.05C119.257 125.957 121.21 124.19 121.303 121.121C121.396 119.819 121.582 119.354 123.07 119.354C134.23 119.447 145.483 119.447 156.643 119.354C158.038 119.354 158.41 119.726 158.41 121.121C158.503 124.376 160.456 126.05 163.711 126.05C165.571 126.05 167.431 126.05 169.291 126.05C173.104 126.05 174.964 124.097 175.057 120.284C175.057 118.796 174.592 117.122 175.429 115.727C176.452 113.867 176.731 112.007 176.731 109.961C176.731 101.312 176.731 92.6636 176.731 82.4338C177.382 82.3408 177.94 81.7829 178.312 81.2249C178.777 80.6669 178.963 79.9229 178.963 79.1789C178.87 74.808 178.87 70.3441 178.87 65.8803ZM124.279 49.1407C129.859 49.1407 135.439 49.1407 140.926 49.1407C146.32 49.1407 151.714 49.1407 157.201 49.1407C159.619 49.1407 159.898 49.5127 159.991 52.3026C159.991 55.3715 159.712 55.8365 157.387 55.8365C146.32 55.8365 135.253 55.8365 124.279 55.8365C121.861 55.8365 121.396 55.2785 121.396 52.4886C121.303 49.6987 121.768 49.1407 124.279 49.1407ZM117.304 111.077C114.049 111.077 111.352 108.38 111.352 105.125C111.445 101.963 114.142 99.3594 117.211 99.3594C120.466 99.3594 122.884 101.87 122.884 105.218C122.977 108.473 120.466 111.077 117.304 111.077ZM116.467 90.9896C112.933 90.9896 111.352 89.3157 111.352 85.6888C111.352 79.1789 111.352 72.6691 111.352 66.1592C111.352 62.5323 112.84 61.0444 116.467 61.0444C124.279 61.0444 131.998 61.0444 139.81 61.0444C147.436 61.0444 155.062 61.0444 162.688 61.0444C166.78 61.0444 168.175 62.4393 168.175 66.4382C168.175 72.6691 168.175 78.8999 168.175 85.1308C168.175 88.8507 166.129 90.8966 162.409 90.9896C147.157 90.9896 131.812 90.9896 116.467 90.9896ZM162.409 111.077C159.247 111.077 156.736 108.566 156.643 105.311C156.643 101.963 159.061 99.4524 162.316 99.4524C165.571 99.4524 168.268 102.149 168.268 105.404C168.175 108.38 165.571 111.077 162.409 111.077Z" fill="white"/>
<path d="M23.3232 171.26C21.9365 171.26 20.8792 170.87 20.1512 170.09C19.4232 169.293 19.0592 168.157 19.0592 166.684V157.116C19.0592 155.643 19.4232 154.516 20.1512 153.736C20.8792 152.939 21.9365 152.54 23.3232 152.54C24.7098 152.54 25.7672 152.939 26.4952 153.736C27.2232 154.516 27.5872 155.643 27.5872 157.116V158.676H24.8832V156.934C24.8832 155.738 24.3892 155.14 23.4012 155.14C22.4132 155.14 21.9192 155.738 21.9192 156.934V166.892C21.9192 168.071 22.4132 168.66 23.4012 168.66C24.3892 168.66 24.8832 168.071 24.8832 166.892V163.33H23.4532V160.73H27.5872V166.684C27.5872 168.157 27.2232 169.293 26.4952 170.09C25.7672 170.87 24.7098 171.26 23.3232 171.26ZM31.6594 155.4H28.6694V152.8H37.5094V155.4H34.5194V171H31.6594V155.4ZM38.8941 152.8H46.4601V155.4H41.7541V160.47H45.4461V163.07H41.7541V171H38.8941V152.8ZM51.5496 171.26C50.163 171.26 49.1143 170.87 48.4036 170.09C47.693 169.293 47.3376 168.157 47.3376 166.684V165.644H50.0416V166.892C50.0416 168.071 50.5356 168.66 51.5236 168.66C52.009 168.66 52.373 168.521 52.6156 168.244C52.8756 167.949 53.0056 167.481 53.0056 166.84C53.0056 166.077 52.8323 165.41 52.4856 164.838C52.139 164.249 51.4976 163.547 50.5616 162.732C49.383 161.692 48.5596 160.756 48.0916 159.924C47.6236 159.075 47.3896 158.121 47.3896 157.064C47.3896 155.625 47.7536 154.516 48.4816 153.736C49.2096 152.939 50.267 152.54 51.6536 152.54C53.023 152.54 54.0543 152.939 54.7476 153.736C55.4583 154.516 55.8136 155.643 55.8136 157.116V157.87H53.1096V156.934C53.1096 156.31 52.9883 155.859 52.7456 155.582C52.503 155.287 52.1476 155.14 51.6796 155.14C50.7263 155.14 50.2496 155.721 50.2496 156.882C50.2496 157.541 50.423 158.156 50.7696 158.728C51.1336 159.3 51.7836 159.993 52.7196 160.808C53.9156 161.848 54.739 162.793 55.1896 163.642C55.6403 164.491 55.8656 165.488 55.8656 166.632C55.8656 168.123 55.493 169.267 54.7476 170.064C54.0196 170.861 52.9536 171.26 51.5496 171.26ZM63.8795 152.8H67.7535L70.7175 171H67.8575L67.3375 167.386V167.438H64.0875L63.5675 171H60.9155L63.8795 152.8ZM66.9995 164.968L65.7255 155.972H65.6735L64.4255 164.968H66.9995ZM76.0843 171.26C74.7149 171.26 73.6663 170.87 72.9383 170.09C72.2276 169.31 71.8723 168.209 71.8723 166.788V157.012C71.8723 155.591 72.2276 154.49 72.9383 153.71C73.6663 152.93 74.7149 152.54 76.0843 152.54C77.4536 152.54 78.4936 152.93 79.2043 153.71C79.9323 154.49 80.2963 155.591 80.2963 157.012V158.936H77.5923V156.83C77.5923 155.703 77.1156 155.14 76.1623 155.14C75.2089 155.14 74.7323 155.703 74.7323 156.83V166.996C74.7323 168.105 75.2089 168.66 76.1623 168.66C77.1156 168.66 77.5923 168.105 77.5923 166.996V164.214H80.2963V166.788C80.2963 168.209 79.9323 169.31 79.2043 170.09C78.4936 170.87 77.4536 171.26 76.0843 171.26ZM86.0882 171.26C84.7189 171.26 83.6702 170.87 82.9422 170.09C82.2315 169.31 81.8762 168.209 81.8762 166.788V157.012C81.8762 155.591 82.2315 154.49 82.9422 153.71C83.6702 152.93 84.7189 152.54 86.0882 152.54C87.4575 152.54 88.4975 152.93 89.2082 153.71C89.9362 154.49 90.3002 155.591 90.3002 157.012V158.936H87.5962V156.83C87.5962 155.703 87.1195 155.14 86.1662 155.14C85.2129 155.14 84.7362 155.703 84.7362 156.83V166.996C84.7362 168.105 85.2129 168.66 86.1662 168.66C87.1195 168.66 87.5962 168.105 87.5962 166.996V164.214H90.3002V166.788C90.3002 168.209 89.9362 169.31 89.2082 170.09C88.4975 170.87 87.4575 171.26 86.0882 171.26ZM92.0113 152.8H99.8113V155.4H94.8713V160.21H98.7973V162.81H94.8713V168.4H99.8113V171H92.0113V152.8ZM105.225 171.26C103.839 171.26 102.79 170.87 102.079 170.09C101.369 169.293 101.013 168.157 101.013 166.684V165.644H103.717V166.892C103.717 168.071 104.211 168.66 105.199 168.66C105.685 168.66 106.049 168.521 106.291 168.244C106.551 167.949 106.681 167.481 106.681 166.84C106.681 166.077 106.508 165.41 106.161 164.838C105.815 164.249 105.173 163.547 104.237 162.732C103.059 161.692 102.235 160.756 101.767 159.924C101.299 159.075 101.065 158.121 101.065 157.064C101.065 155.625 101.429 154.516 102.157 153.736C102.885 152.939 103.943 152.54 105.329 152.54C106.699 152.54 107.73 152.939 108.423 153.736C109.134 154.516 109.489 155.643 109.489 157.116V157.87H106.785V156.934C106.785 156.31 106.664 155.859 106.421 155.582C106.179 155.287 105.823 155.14 105.355 155.14C104.402 155.14 103.925 155.721 103.925 156.882C103.925 157.541 104.099 158.156 104.445 158.728C104.809 159.3 105.459 159.993 106.395 160.808C107.591 161.848 108.415 162.793 108.865 163.642C109.316 164.491 109.541 165.488 109.541 166.632C109.541 168.123 109.169 169.267 108.423 170.064C107.695 170.861 106.629 171.26 105.225 171.26ZM114.899 171.26C113.513 171.26 112.464 170.87 111.753 170.09C111.043 169.293 110.687 168.157 110.687 166.684V165.644H113.391V166.892C113.391 168.071 113.885 168.66 114.873 168.66C115.359 168.66 115.723 168.521 115.965 168.244C116.225 167.949 116.355 167.481 116.355 166.84C116.355 166.077 116.182 165.41 115.835 164.838C115.489 164.249 114.847 163.547 113.911 162.732C112.733 161.692 111.909 160.756 111.441 159.924C110.973 159.075 110.739 158.121 110.739 157.064C110.739 155.625 111.103 154.516 111.831 153.736C112.559 152.939 113.617 152.54 115.003 152.54C116.373 152.54 117.404 152.939 118.097 153.736C118.808 154.516 119.163 155.643 119.163 157.116V157.87H116.459V156.934C116.459 156.31 116.338 155.859 116.095 155.582C115.853 155.287 115.497 155.14 115.029 155.14C114.076 155.14 113.599 155.721 113.599 156.882C113.599 157.541 113.773 158.156 114.119 158.728C114.483 159.3 115.133 159.993 116.069 160.808C117.265 161.848 118.089 162.793 118.539 163.642C118.99 164.491 119.215 165.488 119.215 166.632C119.215 168.123 118.843 169.267 118.097 170.064C117.369 170.861 116.303 171.26 114.899 171.26ZM120.855 152.8H123.715V171H120.855V152.8ZM125.857 152.8H130.173C131.646 152.8 132.721 153.147 133.397 153.84C134.073 154.516 134.411 155.565 134.411 156.986V157.714C134.411 158.65 134.255 159.413 133.943 160.002C133.648 160.591 133.189 161.016 132.565 161.276V161.328C133.986 161.813 134.697 163.079 134.697 165.124V166.684C134.697 168.088 134.324 169.163 133.579 169.908C132.851 170.636 131.776 171 130.355 171H125.857V152.8ZM129.835 160.21C130.407 160.21 130.832 160.063 131.109 159.768C131.404 159.473 131.551 158.979 131.551 158.286V157.272C131.551 156.613 131.43 156.137 131.187 155.842C130.962 155.547 130.598 155.4 130.095 155.4H128.717V160.21H129.835ZM130.355 168.4C130.858 168.4 131.23 168.27 131.473 168.01C131.716 167.733 131.837 167.265 131.837 166.606V165.02C131.837 164.188 131.69 163.616 131.395 163.304C131.118 162.975 130.65 162.81 129.991 162.81H128.717V168.4H130.355ZM136.369 152.8H139.229V171H136.369V152.8ZM141.371 152.8H144.231V168.4H148.937V171H141.371V152.8ZM150.308 152.8H153.168V171H150.308V152.8ZM157.546 155.4H154.556V152.8H163.396V155.4H160.406V171H157.546V155.4ZM167.508 163.252L164.05 152.8H167.092L169.042 159.482H169.094L171.044 152.8H173.826L170.368 163.252V171H167.508V163.252ZM178.525 152.8H181.411L183.283 166.918H183.335L185.207 152.8H187.833L185.077 171H181.281L178.525 152.8ZM190.68 152.8H194.554L197.518 171H194.658L194.138 167.386V167.438H190.888L190.368 171H187.716L190.68 152.8ZM193.8 164.968L192.526 155.972H192.474L191.226 164.968H193.8ZM198.906 152.8H201.766V168.4H206.472V171H198.906V152.8ZM207.843 152.8H210.703V171H207.843V152.8ZM212.845 152.8H217.213C218.635 152.8 219.701 153.181 220.411 153.944C221.122 154.707 221.477 155.825 221.477 157.298V166.502C221.477 167.975 221.122 169.093 220.411 169.856C219.701 170.619 218.635 171 217.213 171H212.845V152.8ZM217.161 168.4C217.629 168.4 217.985 168.261 218.227 167.984C218.487 167.707 218.617 167.256 218.617 166.632V157.168C218.617 156.544 218.487 156.093 218.227 155.816C217.985 155.539 217.629 155.4 217.161 155.4H215.705V168.4H217.161ZM225.567 152.8H229.441L232.405 171H229.545L229.025 167.386V167.438H225.775L225.255 171H222.603L225.567 152.8ZM228.687 164.968L227.413 155.972H227.361L226.113 164.968H228.687ZM234.835 155.4H231.845V152.8H240.685V155.4H237.695V171H234.835V155.4ZM246.102 171.26C244.698 171.26 243.624 170.861 242.878 170.064C242.133 169.267 241.76 168.14 241.76 166.684V157.116C241.76 155.66 242.133 154.533 242.878 153.736C243.624 152.939 244.698 152.54 246.102 152.54C247.506 152.54 248.581 152.939 249.326 153.736C250.072 154.533 250.444 155.66 250.444 157.116V166.684C250.444 168.14 250.072 169.267 249.326 170.064C248.581 170.861 247.506 171.26 246.102 171.26ZM246.102 168.66C247.09 168.66 247.584 168.062 247.584 166.866V156.934C247.584 155.738 247.09 155.14 246.102 155.14C245.114 155.14 244.62 155.738 244.62 156.934V166.866C244.62 168.062 245.114 168.66 246.102 168.66ZM252.379 152.8H256.617C258.09 152.8 259.165 153.147 259.841 153.84C260.517 154.516 260.855 155.565 260.855 156.986V158.104C260.855 159.993 260.231 161.189 258.983 161.692V161.744C259.676 161.952 260.161 162.377 260.439 163.018C260.733 163.659 260.881 164.517 260.881 165.592V168.79C260.881 169.31 260.898 169.735 260.933 170.064C260.967 170.376 261.054 170.688 261.193 171H258.281C258.177 170.705 258.107 170.428 258.073 170.168C258.038 169.908 258.021 169.44 258.021 168.764V165.436C258.021 164.604 257.882 164.023 257.605 163.694C257.345 163.365 256.885 163.2 256.227 163.2H255.239V171H252.379V152.8ZM256.279 160.6C256.851 160.6 257.275 160.453 257.553 160.158C257.847 159.863 257.994 159.369 257.994 158.676V157.272C257.994 156.613 257.873 156.137 257.631 155.842C257.405 155.547 257.041 155.4 256.539 155.4H255.239V160.6H256.279Z" fill="white"/>
</svg>
